<svg xmlns="http://www.w3.org/2000/svg" xml:space="preserve" viewBox="0 0 512 512"><path d="M76 304V128.364c0-5 3.22-8.364 8-8.364h328c4.784 0 8 3.36 8 8.364V304H76z" style="fill:#1e2c33"/><path d="M76 304v32c0 4.78 3.22 8 8 8h328c4.784 0 8-3.22 8-8v-32H76z" style="fill:#f5f5f5"/><path d="M92 140h312v148H92z" style="fill:#586874"/><path d="M204 344h88v36h-88z" style="fill:#e6e6e6"/><path d="M320 388c0-4.4-3.6-8-8-8H184c-4.4 0-8 3.6-8 8s3.6 8 8 8h128c4.4 0 8-3.6 8-8z" style="fill:#f5f5f5"/><circle cx="248" cy="324" r="8" style="fill:#1e2c33"/><path d="M436 388c0 4-4 8-8 8h-80c-4 0-8-2.4-8-7.6V248c0-4 4-8 8-8h80c4 0 8 4 8 8v140z" style="fill:#e6e6e6"/><path d="M344 256h88v116h-88z" style="fill:#1e2c33"/><path d="M348 260h80v108h-80z" style="fill:#586874"/><circle cx="388" cy="244" r="2" style="fill:#263740"/><path d="M398.32 252h-20.54c-.984 0-1.78-1.008-1.78-2 0-.984.796-2 1.78-2h20.54c.988 0 1.78 1.016 1.78 2 0 .992-.792 2-1.78 2zM387.996 376c-4.412 0-7.992 3.584-7.992 8 0 4.408 3.584 8 7.992 8 4.416 0 8.008-3.592 8.008-8 0-4.416-3.588-8-8.008-8z" style="fill:#263740"/><path d="M340 268c-2.212 0-4-1.788-4-4v-8c0-2.212 1.788-4 4-4s4 1.788 4 4v8c0 2.212-1.788 4-4 4zM340 288c-2.212 0-4-1.788-4-4v-4c0-2.212 1.788-4 4-4s4 1.788 4 4v4c0 2.212-1.788 4-4 4zM340 304c-2.212 0-4-1.788-4-4v-4c0-2.212 1.788-4 4-4s4 1.788 4 4v4c0 2.212-1.788 4-4 4zM420 244h-4c-2.212 0-4-1.788-4-4s1.788-4 4-4h4c2.212 0 4 1.788 4 4s-1.788 4-4 4z" style="fill:#e6e6e6"/></svg>